<svg width="50" height="50" viewBox="0 0 50 50" fill="none" xmlns="http://www.w3.org/2000/svg">
<path d="M21.006 34.8038L11.3636 25.1615L14.5778 21.9473L21.006 28.3756L33.8625 15.5191L37.0766 18.7332L21.006 34.8038Z" fill="#1BE017"/>
<path fill-rule="evenodd" clip-rule="evenodd" d="M0 25C0 11.1929 11.1929 0 25 0C38.8071 0 50 11.1929 50 25C50 38.8071 38.8071 50 25 50C11.1929 50 0 38.8071 0 25ZM25 45.4545C13.7033 45.4545 4.54545 36.2967 4.54545 25C4.54545 13.7033 13.7033 4.54545 25 4.54545C36.2967 4.54545 45.4545 13.7033 45.4545 25C45.4545 36.2967 36.2967 45.4545 25 45.4545Z" fill="#1BE017"/>
</svg>
